<?xml version="1.0" encoding="utf-8" standalone="no"?>
<!DOCTYPE svg PUBLIC "-//W3C//DTD SVG 1.1//EN"
  "http://www.w3.org/Graphics/SVG/1.1/DTD/svg11.dtd">
<!-- Created with matplotlib (https://matplotlib.org/) -->
<svg height="345.6pt" version="1.1" viewBox="0 0 460.8 345.6" width="460.8pt" xmlns="http://www.w3.org/2000/svg" xmlns:xlink="http://www.w3.org/1999/xlink">
 <defs>
  <style type="text/css">
*{stroke-linecap:butt;stroke-linejoin:round;}
  </style>
 </defs>
 <g id="figure_1">
  <g id="patch_1">
   <path d="M 0 345.6 
L 460.8 345.6 
L 460.8 0 
L 0 0 
z
" style="fill:#ffffff;"/>
  </g>
  <g id="axes_1">
   <g id="patch_2">
    <path d="M 57.6 307.584 
L 414.72 307.584 
L 414.72 41.472 
L 57.6 41.472 
z
" style="fill:#ffffff;"/>
   </g>
   <g id="matplotlib.axis_1">
    <g id="xtick_1">
     <g id="line2d_1">
      <defs>
       <path d="M 0 0 
L 0 3.5 
" id="ma71a089557" style="stroke:#000000;stroke-width:0.8;"/>
      </defs>
      <g>
       <use style="stroke:#000000;stroke-width:0.8;" x="57.6" xlink:href="#ma71a089557" y="307.584"/>
      </g>
     </g>
     <g id="text_1">
      <!-- 0 -->
      <defs>
       <path d="M 31.78125 66.40625 
Q 24.171875 66.40625 20.328125 58.90625 
Q 16.5 51.421875 16.5 36.375 
Q 16.5 21.390625 20.328125 13.890625 
Q 24.171875 6.390625 31.78125 6.390625 
Q 39.453125 6.390625 43.28125 13.890625 
Q 47.125 21.390625 47.125 36.375 
Q 47.125 51.421875 43.28125 58.90625 
Q 39.453125 66.40625 31.78125 66.40625 
z
M 31.78125 74.21875 
Q 44.046875 74.21875 50.515625 64.515625 
Q 56.984375 54.828125 56.984375 36.375 
Q 56.984375 17.96875 50.515625 8.265625 
Q 44.046875 -1.421875 31.78125 -1.421875 
Q 19.53125 -1.421875 13.0625 8.265625 
Q 6.59375 17.96875 6.59375 36.375 
Q 6.59375 54.828125 13.0625 64.515625 
Q 19.53125 74.21875 31.78125 74.21875 
z
" id="DejaVuSans-48"/>
      </defs>
      <g transform="translate(54.41875 322.182437)scale(0.1 -0.1)">
       <use xlink:href="#DejaVuSans-48"/>
      </g>
     </g>
    </g>
    <g id="xtick_2">
     <g id="line2d_2">
      <g>
       <use style="stroke:#000000;stroke-width:0.8;" x="97.28" xlink:href="#ma71a089557" y="307.584"/>
      </g>
     </g>
     <g id="text_2">
      <!-- 50 -->
      <defs>
       <path d="M 10.796875 72.90625 
L 49.515625 72.90625 
L 49.515625 64.59375 
L 19.828125 64.59375 
L 19.828125 46.734375 
Q 21.96875 47.46875 24.109375 47.828125 
Q 26.265625 48.1875 28.421875 48.1875 
Q 40.625 48.1875 47.75 41.5 
Q 54.890625 34.8125 54.890625 23.390625 
Q 54.890625 11.625 47.5625 5.09375 
Q 40.234375 -1.421875 26.90625 -1.421875 
Q 22.3125 -1.421875 17.546875 -0.640625 
Q 12.796875 0.140625 7.71875 1.703125 
L 7.71875 11.625 
Q 12.109375 9.234375 16.796875 8.0625 
Q 21.484375 6.890625 26.703125 6.890625 
Q 35.15625 6.890625 40.078125 11.328125 
Q 45.015625 15.765625 45.015625 23.390625 
Q 45.015625 31 40.078125 35.4375 
Q 35.15625 39.890625 26.703125 39.890625 
Q 22.75 39.890625 18.8125 39.015625 
Q 14.890625 38.140625 10.796875 36.28125 
z
" id="DejaVuSans-53"/>
      </defs>
      <g transform="translate(90.9175 322.182437)scale(0.1 -0.1)">
       <use xlink:href="#DejaVuSans-53"/>
       <use x="63.623047" xlink:href="#DejaVuSans-48"/>
      </g>
     </g>
    </g>
    <g id="xtick_3">
     <g id="line2d_3">
      <g>
       <use style="stroke:#000000;stroke-width:0.8;" x="136.96" xlink:href="#ma71a089557" y="307.584"/>
      </g>
     </g>
     <g id="text_3">
      <!-- 100 -->
      <defs>
       <path d="M 12.40625 8.296875 
L 28.515625 8.296875 
L 28.515625 63.921875 
L 10.984375 60.40625 
L 10.984375 69.390625 
L 28.421875 72.90625 
L 38.28125 72.90625 
L 38.28125 8.296875 
L 54.390625 8.296875 
L 54.390625 0 
L 12.40625 0 
z
" id="DejaVuSans-49"/>
      </defs>
      <g transform="translate(127.41625 322.182437)scale(0.1 -0.1)">
       <use xlink:href="#DejaVuSans-49"/>
       <use x="63.623047" xlink:href="#DejaVuSans-48"/>
       <use x="127.246094" xlink:href="#DejaVuSans-48"/>
      </g>
     </g>
    </g>
    <g id="xtick_4">
     <g id="line2d_4">
      <g>
       <use style="stroke:#000000;stroke-width:0.8;" x="176.64" xlink:href="#ma71a089557" y="307.584"/>
      </g>
     </g>
     <g id="text_4">
      <!-- 150 -->
      <g transform="translate(167.09625 322.182437)scale(0.1 -0.1)">
       <use xlink:href="#DejaVuSans-49"/>
       <use x="63.623047" xlink:href="#DejaVuSans-53"/>
       <use x="127.246094" xlink:href="#DejaVuSans-48"/>
      </g>
     </g>
    </g>
    <g id="xtick_5">
     <g id="line2d_5">
      <g>
       <use style="stroke:#000000;stroke-width:0.8;" x="216.32" xlink:href="#ma71a089557" y="307.584"/>
      </g>
     </g>
     <g id="text_5">
      <!-- 200 -->
      <defs>
       <path d="M 19.1875 8.296875 
L 53.609375 8.296875 
L 53.609375 0 
L 7.328125 0 
L 7.328125 8.296875 
Q 12.9375 14.109375 22.625 23.890625 
Q 32.328125 33.6875 34.8125 36.53125 
Q 39.546875 41.84375 41.421875 45.53125 
Q 43.3125 49.21875 43.3125 52.78125 
Q 43.3125 58.59375 39.234375 62.25 
Q 35.15625 65.921875 28.609375 65.921875 
Q 23.96875 65.921875 18.8125 64.3125 
Q 13.671875 62.703125 7.8125 59.421875 
L 7.8125 69.390625 
Q 13.765625 71.78125 18.9375 73 
Q 24.125 74.21875 28.421875 74.21875 
Q 39.75 74.21875 46.484375 68.546875 
Q 53.21875 62.890625 53.21875 53.421875 
Q 53.21875 48.921875 51.53125 44.890625 
Q 49.859375 40.875 45.40625 35.40625 
Q 44.1875 33.984375 37.640625 27.21875 
Q 31.109375 20.453125 19.1875 8.296875 
z
" id="DejaVuSans-50"/>
      </defs>
      <g transform="translate(206.77625 322.182437)scale(0.1 -0.1)">
       <use xlink:href="#DejaVuSans-50"/>
       <use x="63.623047" xlink:href="#DejaVuSans-48"/>
       <use x="127.246094" xlink:href="#DejaVuSans-48"/>
      </g>
     </g>
    </g>
    <g id="xtick_6">
     <g id="line2d_6">
      <g>
       <use style="stroke:#000000;stroke-width:0.8;" x="256" xlink:href="#ma71a089557" y="307.584"/>
      </g>
     </g>
     <g id="text_6">
      <!-- 250 -->
      <g transform="translate(246.45625 322.182437)scale(0.1 -0.1)">
       <use xlink:href="#DejaVuSans-50"/>
       <use x="63.623047" xlink:href="#DejaVuSans-53"/>
       <use x="127.246094" xlink:href="#DejaVuSans-48"/>
      </g>
     </g>
    </g>
    <g id="xtick_7">
     <g id="line2d_7">
      <g>
       <use style="stroke:#000000;stroke-width:0.8;" x="295.68" xlink:href="#ma71a089557" y="307.584"/>
      </g>
     </g>
     <g id="text_7">
      <!-- 300 -->
      <defs>
       <path d="M 40.578125 39.3125 
Q 47.65625 37.796875 51.625 33 
Q 55.609375 28.21875 55.609375 21.1875 
Q 55.609375 10.40625 48.1875 4.484375 
Q 40.765625 -1.421875 27.09375 -1.421875 
Q 22.515625 -1.421875 17.65625 -0.515625 
Q 12.796875 0.390625 7.625 2.203125 
L 7.625 11.71875 
Q 11.71875 9.328125 16.59375 8.109375 
Q 21.484375 6.890625 26.8125 6.890625 
Q 36.078125 6.890625 40.9375 10.546875 
Q 45.796875 14.203125 45.796875 21.1875 
Q 45.796875 27.640625 41.28125 31.265625 
Q 36.765625 34.90625 28.71875 34.90625 
L 20.21875 34.90625 
L 20.21875 43.015625 
L 29.109375 43.015625 
Q 36.375 43.015625 40.234375 45.921875 
Q 44.09375 48.828125 44.09375 54.296875 
Q 44.09375 59.90625 40.109375 62.90625 
Q 36.140625 65.921875 28.71875 65.921875 
Q 24.65625 65.921875 20.015625 65.03125 
Q 15.375 64.15625 9.8125 62.3125 
L 9.8125 71.09375 
Q 15.4375 72.65625 20.34375 73.4375 
Q 25.25 74.21875 29.59375 74.21875 
Q 40.828125 74.21875 47.359375 69.109375 
Q 53.90625 64.015625 53.90625 55.328125 
Q 53.90625 49.265625 50.4375 45.09375 
Q 46.96875 40.921875 40.578125 39.3125 
z
" id="DejaVuSans-51"/>
      </defs>
      <g transform="translate(286.13625 322.182437)scale(0.1 -0.1)">
       <use xlink:href="#DejaVuSans-51"/>
       <use x="63.623047" xlink:href="#DejaVuSans-48"/>
       <use x="127.246094" xlink:href="#DejaVuSans-48"/>
      </g>
     </g>
    </g>
    <g id="xtick_8">
     <g id="line2d_8">
      <g>
       <use style="stroke:#000000;stroke-width:0.8;" x="335.36" xlink:href="#ma71a089557" y="307.584"/>
      </g>
     </g>
     <g id="text_8">
      <!-- 350 -->
      <g transform="translate(325.81625 322.182437)scale(0.1 -0.1)">
       <use xlink:href="#DejaVuSans-51"/>
       <use x="63.623047" xlink:href="#DejaVuSans-53"/>
       <use x="127.246094" xlink:href="#DejaVuSans-48"/>
      </g>
     </g>
    </g>
    <g id="xtick_9">
     <g id="line2d_9">
      <g>
       <use style="stroke:#000000;stroke-width:0.8;" x="375.04" xlink:href="#ma71a089557" y="307.584"/>
      </g>
     </g>
     <g id="text_9">
      <!-- 400 -->
      <defs>
       <path d="M 37.796875 64.3125 
L 12.890625 25.390625 
L 37.796875 25.390625 
z
M 35.203125 72.90625 
L 47.609375 72.90625 
L 47.609375 25.390625 
L 58.015625 25.390625 
L 58.015625 17.1875 
L 47.609375 17.1875 
L 47.609375 0 
L 37.796875 0 
L 37.796875 17.1875 
L 4.890625 17.1875 
L 4.890625 26.703125 
z
" id="DejaVuSans-52"/>
      </defs>
      <g transform="translate(365.49625 322.182437)scale(0.1 -0.1)">
       <use xlink:href="#DejaVuSans-52"/>
       <use x="63.623047" xlink:href="#DejaVuSans-48"/>
       <use x="127.246094" xlink:href="#DejaVuSans-48"/>
      </g>
     </g>
    </g>
    <g id="xtick_10">
     <g id="line2d_10">
      <g>
       <use style="stroke:#000000;stroke-width:0.8;" x="414.72" xlink:href="#ma71a089557" y="307.584"/>
      </g>
     </g>
     <g id="text_10">
      <!-- 450 -->
      <g transform="translate(405.17625 322.182437)scale(0.1 -0.1)">
       <use xlink:href="#DejaVuSans-52"/>
       <use x="63.623047" xlink:href="#DejaVuSans-53"/>
       <use x="127.246094" xlink:href="#DejaVuSans-48"/>
      </g>
     </g>
    </g>
    <g id="text_11">
     <!-- Time (s) -->
     <defs>
      <path d="M -0.296875 72.90625 
L 61.375 72.90625 
L 61.375 64.59375 
L 35.5 64.59375 
L 35.5 0 
L 25.59375 0 
L 25.59375 64.59375 
L -0.296875 64.59375 
z
" id="DejaVuSans-84"/>
      <path d="M 9.421875 54.6875 
L 18.40625 54.6875 
L 18.40625 0 
L 9.421875 0 
z
M 9.421875 75.984375 
L 18.40625 75.984375 
L 18.40625 64.59375 
L 9.421875 64.59375 
z
" id="DejaVuSans-105"/>
      <path d="M 52 44.1875 
Q 55.375 50.25 60.0625 53.125 
Q 64.75 56 71.09375 56 
Q 79.640625 56 84.28125 50.015625 
Q 88.921875 44.046875 88.921875 33.015625 
L 88.921875 0 
L 79.890625 0 
L 79.890625 32.71875 
Q 79.890625 40.578125 77.09375 44.375 
Q 74.3125 48.1875 68.609375 48.1875 
Q 61.625 48.1875 57.5625 43.546875 
Q 53.515625 38.921875 53.515625 30.90625 
L 53.515625 0 
L 44.484375 0 
L 44.484375 32.71875 
Q 44.484375 40.625 41.703125 44.40625 
Q 38.921875 48.1875 33.109375 48.1875 
Q 26.21875 48.1875 22.15625 43.53125 
Q 18.109375 38.875 18.109375 30.90625 
L 18.109375 0 
L 9.078125 0 
L 9.078125 54.6875 
L 18.109375 54.6875 
L 18.109375 46.1875 
Q 21.1875 51.21875 25.484375 53.609375 
Q 29.78125 56 35.6875 56 
Q 41.65625 56 45.828125 52.96875 
Q 50 49.953125 52 44.1875 
z
" id="DejaVuSans-109"/>
      <path d="M 56.203125 29.59375 
L 56.203125 25.203125 
L 14.890625 25.203125 
Q 15.484375 15.921875 20.484375 11.0625 
Q 25.484375 6.203125 34.421875 6.203125 
Q 39.59375 6.203125 44.453125 7.46875 
Q 49.3125 8.734375 54.109375 11.28125 
L 54.109375 2.78125 
Q 49.265625 0.734375 44.1875 -0.34375 
Q 39.109375 -1.421875 33.890625 -1.421875 
Q 20.796875 -1.421875 13.15625 6.1875 
Q 5.515625 13.8125 5.515625 26.8125 
Q 5.515625 40.234375 12.765625 48.109375 
Q 20.015625 56 32.328125 56 
Q 43.359375 56 49.78125 48.890625 
Q 56.203125 41.796875 56.203125 29.59375 
z
M 47.21875 32.234375 
Q 47.125 39.59375 43.09375 43.984375 
Q 39.0625 48.390625 32.421875 48.390625 
Q 24.90625 48.390625 20.390625 44.140625 
Q 15.875 39.890625 15.1875 32.171875 
z
" id="DejaVuSans-101"/>
      <path id="DejaVuSans-32"/>
      <path d="M 31 75.875 
Q 24.46875 64.65625 21.28125 53.65625 
Q 18.109375 42.671875 18.109375 31.390625 
Q 18.109375 20.125 21.3125 9.0625 
Q 24.515625 -2 31 -13.1875 
L 23.1875 -13.1875 
Q 15.875 -1.703125 12.234375 9.375 
Q 8.59375 20.453125 8.59375 31.390625 
Q 8.59375 42.28125 12.203125 53.3125 
Q 15.828125 64.359375 23.1875 75.875 
z
" id="DejaVuSans-40"/>
      <path d="M 44.28125 53.078125 
L 44.28125 44.578125 
Q 40.484375 46.53125 36.375 47.5 
Q 32.28125 48.484375 27.875 48.484375 
Q 21.1875 48.484375 17.84375 46.4375 
Q 14.5 44.390625 14.5 40.28125 
Q 14.5 37.15625 16.890625 35.375 
Q 19.28125 33.59375 26.515625 31.984375 
L 29.59375 31.296875 
Q 39.15625 29.25 43.1875 25.515625 
Q 47.21875 21.78125 47.21875 15.09375 
Q 47.21875 7.46875 41.1875 3.015625 
Q 35.15625 -1.421875 24.609375 -1.421875 
Q 20.21875 -1.421875 15.453125 -0.5625 
Q 10.6875 0.296875 5.421875 2 
L 5.421875 11.28125 
Q 10.40625 8.6875 15.234375 7.390625 
Q 20.0625 6.109375 24.8125 6.109375 
Q 31.15625 6.109375 34.5625 8.28125 
Q 37.984375 10.453125 37.984375 14.40625 
Q 37.984375 18.0625 35.515625 20.015625 
Q 33.0625 21.96875 24.703125 23.78125 
L 21.578125 24.515625 
Q 13.234375 26.265625 9.515625 29.90625 
Q 5.8125 33.546875 5.8125 39.890625 
Q 5.8125 47.609375 11.28125 51.796875 
Q 16.75 56 26.8125 56 
Q 31.78125 56 36.171875 55.265625 
Q 40.578125 54.546875 44.28125 53.078125 
z
" id="DejaVuSans-115"/>
      <path d="M 8.015625 75.875 
L 15.828125 75.875 
Q 23.140625 64.359375 26.78125 53.3125 
Q 30.421875 42.28125 30.421875 31.390625 
Q 30.421875 20.453125 26.78125 9.375 
Q 23.140625 -1.703125 15.828125 -13.1875 
L 8.015625 -13.1875 
Q 14.5 -2 17.703125 9.0625 
Q 20.90625 20.125 20.90625 31.390625 
Q 20.90625 42.671875 17.703125 53.65625 
Q 14.5 64.65625 8.015625 75.875 
z
" id="DejaVuSans-41"/>
     </defs>
     <g transform="translate(215.677188 335.860562)scale(0.1 -0.1)">
      <use xlink:href="#DejaVuSans-84"/>
      <use x="61.037109" xlink:href="#DejaVuSans-105"/>
      <use x="88.820312" xlink:href="#DejaVuSans-109"/>
      <use x="186.232422" xlink:href="#DejaVuSans-101"/>
      <use x="247.755859" xlink:href="#DejaVuSans-32"/>
      <use x="279.542969" xlink:href="#DejaVuSans-40"/>
      <use x="318.556641" xlink:href="#DejaVuSans-115"/>
      <use x="370.65625" xlink:href="#DejaVuSans-41"/>
     </g>
    </g>
   </g>
   <g id="matplotlib.axis_2">
    <g id="ytick_1">
     <g id="line2d_11">
      <defs>
       <path d="M 0 0 
L -3.5 0 
" id="m0175f2e4cd" style="stroke:#000000;stroke-width:0.8;"/>
      </defs>
      <g>
       <use style="stroke:#000000;stroke-width:0.8;" x="57.6" xlink:href="#m0175f2e4cd" y="307.584"/>
      </g>
     </g>
     <g id="text_12">
      <!-- 0 -->
      <g transform="translate(44.2375 311.383219)scale(0.1 -0.1)">
       <use xlink:href="#DejaVuSans-48"/>
      </g>
     </g>
    </g>
    <g id="ytick_2">
     <g id="line2d_12">
      <g>
       <use style="stroke:#000000;stroke-width:0.8;" x="57.6" xlink:href="#m0175f2e4cd" y="263.232"/>
      </g>
     </g>
     <g id="text_13">
      <!-- 50 -->
      <g transform="translate(37.875 267.031219)scale(0.1 -0.1)">
       <use xlink:href="#DejaVuSans-53"/>
       <use x="63.623047" xlink:href="#DejaVuSans-48"/>
      </g>
     </g>
    </g>
    <g id="ytick_3">
     <g id="line2d_13">
      <g>
       <use style="stroke:#000000;stroke-width:0.8;" x="57.6" xlink:href="#m0175f2e4cd" y="218.88"/>
      </g>
     </g>
     <g id="text_14">
      <!-- 100 -->
      <g transform="translate(31.5125 222.679219)scale(0.1 -0.1)">
       <use xlink:href="#DejaVuSans-49"/>
       <use x="63.623047" xlink:href="#DejaVuSans-48"/>
       <use x="127.246094" xlink:href="#DejaVuSans-48"/>
      </g>
     </g>
    </g>
    <g id="ytick_4">
     <g id="line2d_14">
      <g>
       <use style="stroke:#000000;stroke-width:0.8;" x="57.6" xlink:href="#m0175f2e4cd" y="174.528"/>
      </g>
     </g>
     <g id="text_15">
      <!-- 150 -->
      <g transform="translate(31.5125 178.327219)scale(0.1 -0.1)">
       <use xlink:href="#DejaVuSans-49"/>
       <use x="63.623047" xlink:href="#DejaVuSans-53"/>
       <use x="127.246094" xlink:href="#DejaVuSans-48"/>
      </g>
     </g>
    </g>
    <g id="ytick_5">
     <g id="line2d_15">
      <g>
       <use style="stroke:#000000;stroke-width:0.8;" x="57.6" xlink:href="#m0175f2e4cd" y="130.176"/>
      </g>
     </g>
     <g id="text_16">
      <!-- 200 -->
      <g transform="translate(31.5125 133.975219)scale(0.1 -0.1)">
       <use xlink:href="#DejaVuSans-50"/>
       <use x="63.623047" xlink:href="#DejaVuSans-48"/>
       <use x="127.246094" xlink:href="#DejaVuSans-48"/>
      </g>
     </g>
    </g>
    <g id="ytick_6">
     <g id="line2d_16">
      <g>
       <use style="stroke:#000000;stroke-width:0.8;" x="57.6" xlink:href="#m0175f2e4cd" y="85.824"/>
      </g>
     </g>
     <g id="text_17">
      <!-- 250 -->
      <g transform="translate(31.5125 89.623219)scale(0.1 -0.1)">
       <use xlink:href="#DejaVuSans-50"/>
       <use x="63.623047" xlink:href="#DejaVuSans-53"/>
       <use x="127.246094" xlink:href="#DejaVuSans-48"/>
      </g>
     </g>
    </g>
    <g id="ytick_7">
     <g id="line2d_17">
      <g>
       <use style="stroke:#000000;stroke-width:0.8;" x="57.6" xlink:href="#m0175f2e4cd" y="41.472"/>
      </g>
     </g>
     <g id="text_18">
      <!-- 300 -->
      <g transform="translate(31.5125 45.271219)scale(0.1 -0.1)">
       <use xlink:href="#DejaVuSans-51"/>
       <use x="63.623047" xlink:href="#DejaVuSans-48"/>
       <use x="127.246094" xlink:href="#DejaVuSans-48"/>
      </g>
     </g>
    </g>
    <g id="text_19">
     <!-- Distance (mm) -->
     <defs>
      <path d="M 19.671875 64.796875 
L 19.671875 8.109375 
L 31.59375 8.109375 
Q 46.6875 8.109375 53.6875 14.9375 
Q 60.6875 21.78125 60.6875 36.53125 
Q 60.6875 51.171875 53.6875 57.984375 
Q 46.6875 64.796875 31.59375 64.796875 
z
M 9.8125 72.90625 
L 30.078125 72.90625 
Q 51.265625 72.90625 61.171875 64.09375 
Q 71.09375 55.28125 71.09375 36.53125 
Q 71.09375 17.671875 61.125 8.828125 
Q 51.171875 0 30.078125 0 
L 9.8125 0 
z
" id="DejaVuSans-68"/>
      <path d="M 18.3125 70.21875 
L 18.3125 54.6875 
L 36.8125 54.6875 
L 36.8125 47.703125 
L 18.3125 47.703125 
L 18.3125 18.015625 
Q 18.3125 11.328125 20.140625 9.421875 
Q 21.96875 7.515625 27.59375 7.515625 
L 36.8125 7.515625 
L 36.8125 0 
L 27.59375 0 
Q 17.1875 0 13.234375 3.875 
Q 9.28125 7.765625 9.28125 18.015625 
L 9.28125 47.703125 
L 2.6875 47.703125 
L 2.6875 54.6875 
L 9.28125 54.6875 
L 9.28125 70.21875 
z
" id="DejaVuSans-116"/>
      <path d="M 34.28125 27.484375 
Q 23.390625 27.484375 19.1875 25 
Q 14.984375 22.515625 14.984375 16.5 
Q 14.984375 11.71875 18.140625 8.90625 
Q 21.296875 6.109375 26.703125 6.109375 
Q 34.1875 6.109375 38.703125 11.40625 
Q 43.21875 16.703125 43.21875 25.484375 
L 43.21875 27.484375 
z
M 52.203125 31.203125 
L 52.203125 0 
L 43.21875 0 
L 43.21875 8.296875 
Q 40.140625 3.328125 35.546875 0.953125 
Q 30.953125 -1.421875 24.3125 -1.421875 
Q 15.921875 -1.421875 10.953125 3.296875 
Q 6 8.015625 6 15.921875 
Q 6 25.140625 12.171875 29.828125 
Q 18.359375 34.515625 30.609375 34.515625 
L 43.21875 34.515625 
L 43.21875 35.40625 
Q 43.21875 41.609375 39.140625 45 
Q 35.0625 48.390625 27.6875 48.390625 
Q 23 48.390625 18.546875 47.265625 
Q 14.109375 46.140625 10.015625 43.890625 
L 10.015625 52.203125 
Q 14.9375 54.109375 19.578125 55.046875 
Q 24.21875 56 28.609375 56 
Q 40.484375 56 46.34375 49.84375 
Q 52.203125 43.703125 52.203125 31.203125 
z
" id="DejaVuSans-97"/>
      <path d="M 54.890625 33.015625 
L 54.890625 0 
L 45.90625 0 
L 45.90625 32.71875 
Q 45.90625 40.484375 42.875 44.328125 
Q 39.84375 48.1875 33.796875 48.1875 
Q 26.515625 48.1875 22.3125 43.546875 
Q 18.109375 38.921875 18.109375 30.90625 
L 18.109375 0 
L 9.078125 0 
L 9.078125 54.6875 
L 18.109375 54.6875 
L 18.109375 46.1875 
Q 21.34375 51.125 25.703125 53.5625 
Q 30.078125 56 35.796875 56 
Q 45.21875 56 50.046875 50.171875 
Q 54.890625 44.34375 54.890625 33.015625 
z
" id="DejaVuSans-110"/>
      <path d="M 48.78125 52.59375 
L 48.78125 44.1875 
Q 44.96875 46.296875 41.140625 47.34375 
Q 37.3125 48.390625 33.40625 48.390625 
Q 24.65625 48.390625 19.8125 42.84375 
Q 14.984375 37.3125 14.984375 27.296875 
Q 14.984375 17.28125 19.8125 11.734375 
Q 24.65625 6.203125 33.40625 6.203125 
Q 37.3125 6.203125 41.140625 7.25 
Q 44.96875 8.296875 48.78125 10.40625 
L 48.78125 2.09375 
Q 45.015625 0.34375 40.984375 -0.53125 
Q 36.96875 -1.421875 32.421875 -1.421875 
Q 20.0625 -1.421875 12.78125 6.34375 
Q 5.515625 14.109375 5.515625 27.296875 
Q 5.515625 40.671875 12.859375 48.328125 
Q 20.21875 56 33.015625 56 
Q 37.15625 56 41.109375 55.140625 
Q 45.0625 54.296875 48.78125 52.59375 
z
" id="DejaVuSans-99"/>
     </defs>
     <g transform="translate(25.432812 211.62175)rotate(-90)scale(0.1 -0.1)">
      <use xlink:href="#DejaVuSans-68"/>
      <use x="77.001953" xlink:href="#DejaVuSans-105"/>
      <use x="104.785156" xlink:href="#DejaVuSans-115"/>
      <use x="156.884766" xlink:href="#DejaVuSans-116"/>
      <use x="196.09375" xlink:href="#DejaVuSans-97"/>
      <use x="257.373047" xlink:href="#DejaVuSans-110"/>
      <use x="320.751953" xlink:href="#DejaVuSans-99"/>
      <use x="375.732422" xlink:href="#DejaVuSans-101"/>
      <use x="437.255859" xlink:href="#DejaVuSans-32"/>
      <use x="469.042969" xlink:href="#DejaVuSans-40"/>
      <use x="508.056641" xlink:href="#DejaVuSans-109"/>
      <use x="605.46875" xlink:href="#DejaVuSans-109"/>
      <use x="702.880859" xlink:href="#DejaVuSans-41"/>
     </g>
    </g>
   </g>
   <g id="line2d_18">
    <path clip-path="url(#p60b478cb37)" d="M 69.353216 49.978745 
L 69.471462 49.979257 
L 69.589709 49.975445 
L 69.707955 49.976001 
L 69.826202 49.972229 
L 69.943654 49.972822 
L 70.062694 49.969086 
L 70.180147 49.969713 
L 70.318234 49.965763 
L 70.43648 49.966421 
L 70.554726 49.962749 
L 70.672973 49.963433 
L 70.791219 49.959787 
L 70.909466 49.960497 
L 71.019776 49.956972 
L 71.02057 49.959134 
L 71.138816 49.955523 
L 71.257062 49.956268 
L 71.375309 49.95268 
L 71.493555 49.953448 
L 71.611802 49.949883 
L 71.730048 49.950674 
L 71.849088 49.947114 
L 71.985587 49.947728 
L 72.103834 49.944212 
L 72.22208 49.945049 
L 72.340326 49.941556 
L 72.340326 49.943718 
L 72.506982 49.939715 
L 72.625229 49.940618 
L 72.743475 49.937176 
L 72.861722 49.938083 
L 72.979968 49.934659 
L 73.098214 49.935592 
L 73.216461 49.932198 
L 73.334707 49.933162 
L 73.452954 49.9298 
L 73.570406 49.930812 
L 73.570406 49.928633 
L 73.707699 49.929461 
L 73.825946 49.926151 
L 73.944192 49.927202 
L 74.062438 49.923927 
L 74.180685 49.925014 
L 74.298931 49.921776 
L 74.417178 49.922901 
L 74.535424 49.919703 
L 74.65367 49.920867 
L 74.771917 49.917709 
L 74.885402 49.918929 
L 74.888576 49.91675 
L 75.052058 49.91763 
L 75.170304 49.914545 
L 75.28855 49.915829 
L 75.406797 49.912783 
L 75.525043 49.914102 
L 75.64329 49.911109 
L 75.761536 49.912489 
L 75.879782 49.909548 
L 75.998029 49.910977 
L 76.117069 49.908075 
L 76.234522 49.909564 
L 76.352768 49.906723 
L 76.471014 49.908256 
L 76.589261 49.905468 
L 76.707507 49.907056 
L 76.825754 49.904324 
L 76.825754 49.906495 
L 76.96384 49.903708 
L 77.082086 49.905387 
L 77.200333 49.902745 
L 77.318579 49.904483 
L 77.436032 49.90189 
L 77.572531 49.903646 
L 77.690778 49.901128 
L 77.809024 49.902993 
L 77.92727 49.900536 
L 78.045517 49.902464 
L 78.163763 49.900071 
L 78.28201 49.902063 
L 78.400256 49.899733 
L 78.518502 49.901791 
L 78.636749 49.899526 
L 78.754995 49.901649 
L 78.873242 49.89945 
L 78.991488 49.90164 
L 79.109734 49.899507 
L 79.227981 49.901766 
L 79.346227 49.899699 
L 79.464474 49.902026 
L 79.58272 49.900027 
L 79.700173 49.902423 
L 79.836672 49.900532 
L 79.954918 49.903002 
L 80.073165 49.901145 
L 80.191411 49.903685 
L 80.309658 49.901896 
L 80.427904 49.904506 
L 80.54615 49.902786 
L 80.664397 49.905466 
L 80.782643 49.903816 
L 80.90089 49.906566 
L 81.019136 49.904984 
L 81.137382 49.907804 
L 81.255629 49.906291 
L 81.373875 49.909181 
L 81.491328 49.907737 
L 81.629414 49.910824 
L 81.747661 49.909453 
L 81.865907 49.912487 
L 81.984154 49.911184 
L 82.1024 49.914286 
L 82.220646 49.91305 
L 82.338893 49.91622 
L 82.338893 49.91404 
L 82.476979 49.91741 
L 82.595226 49.916279 
L 82.714266 49.919584 
L 82.907904 49.919226 
L 83.02615 49.922587 
L 83.144397 49.921604 
L 83.263437 49.925046 
L 83.38089 49.924108 
L 83.499136 49.927595 
L 83.617382 49.926734 
L 83.735629 49.930282 
L 83.853875 49.92948 
L 83.972122 49.933037 
L 84.088781 49.931993 
L 84.226074 49.935165 
L 84.34432 49.933474 
L 84.462566 49.935896 
L 84.580813 49.93403 
L 84.699059 49.936642 
L 84.817306 49.934939 
L 84.927616 49.93765 
L 84.92841 49.935459 
L 85.046656 49.938262 
L 85.164902 49.936725 
L 85.283149 49.939624 
L 85.401395 49.938175 
L 85.518054 49.941153 
L 85.680742 49.940084 
L 85.798989 49.943145 
L 85.915648 49.941835 
L 85.916442 49.944036 
L 86.052147 49.942907 
L 86.170394 49.946061 
L 86.28864 49.944852 
L 86.406886 49.948059 
L 86.525133 49.946898 
L 86.641792 49.950136 
L 86.643379 49.947948 
L 86.781466 49.951413 
L 86.899712 49.95032 
L 86.915584 49.917112 
L 86.917965 50.283159 
L 86.998118 106.681125 
L 87.109222 241.039838 
L 87.179059 200.487601 
L 87.321907 106.512504 
L 87.374285 112.812432 
L 87.513165 145.48532 
L 87.602842 139.773349 
L 87.760768 132.788651 
L 87.795686 133.266767 
L 87.9552 138.478067 
L 88.048845 137.864359 
L 88.073446 137.800238 
L 88.128998 138.364097 
L 88.238515 139.664366 
L 88.305178 139.336541 
L 88.429773 138.394437 
L 88.49088 138.602419 
L 88.683725 139.56522 
L 88.685312 139.563793 
L 88.835302 139.560056 
L 88.848794 139.532795 
L 88.93609 139.500555 
L 88.851968 139.534477 
L 88.961485 139.528413 
L 89.032909 139.588006 
L 89.09481 139.518563 
L 89.220198 139.416704 
L 89.227341 139.426 
L 89.400346 139.408285 
L 89.228928 139.433902 
L 89.409869 139.427326 
L 89.520973 139.691168 
L 89.655091 139.909737 
L 89.710643 139.864714 
L 91.219277 140.205305 
L 91.33673 140.151833 
L 91.243085 140.214331 
L 91.339904 140.1573 
L 91.650995 139.216302 
L 91.382758 140.19631 
L 91.670042 139.23367 
L 91.810509 139.26209 
L 91.831142 139.213653 
L 91.974784 138.7952 
L 91.975578 138.800657 
L 92.064461 138.699156 
L 92.07319 138.703812 
L 92.075571 138.707263 
L 92.288256 138.302078 
L 92.28905 138.308553 
L 92.382694 138.183073 
L 92.385075 138.186054 
L 92.532685 137.931718 
L 92.533478 137.932854 
L 92.700928 137.608468 
L 92.701722 137.610197 
L 93.214387 136.832014 
L 93.269146 136.892123 
L 93.394534 137.03762 
L 93.427072 136.999204 
L 93.58103 136.860532 
L 93.428659 137.002021 
L 93.612774 136.882649 
L 93.731814 136.985757 
L 93.732608 136.981036 
L 93.790541 136.989243 
L 93.736576 136.978882 
L 93.842918 136.97255 
L 93.946086 136.954851 
L 93.951642 136.961257 
L 94.104806 137.002936 
L 94.203213 137.017016 
L 94.216704 137.015716 
L 94.29527 137.011106 
L 94.219085 137.016816 
L 94.327014 137.015787 
L 94.441293 137.047723 
L 94.453197 137.040452 
L 94.536525 137.061001 
L 94.551603 137.054084 
L 94.663501 137.079404 
L 94.664294 137.072116 
L 94.865075 137.11259 
L 94.974592 137.127352 
L 94.869837 137.119167 
L 94.975386 137.127691 
L 95.095219 137.156256 
L 95.211085 137.169152 
L 95.330125 137.197467 
L 95.212672 137.168549 
L 95.331712 137.19084 
L 95.44361 137.208944 
L 95.333299 137.19704 
L 95.446784 137.211937 
L 95.558682 137.23614 
L 95.450752 137.209593 
L 95.561856 137.229149 
L 95.955482 137.302795 
L 95.956275 137.297418 
L 95.962624 137.304472 
L 96.075315 137.315248 
L 96.187213 137.341885 
L 96.188006 137.334479 
L 96.388787 137.368154 
L 96.389581 137.36567 
L 96.391168 137.373254 
L 96.51735 137.384615 
L 96.629248 137.410207 
L 96.630042 137.402992 
L 96.631629 137.411415 
L 96.84352 137.437418 
L 96.964941 137.460913 
L 96.845107 137.435588 
L 96.966528 137.45415 
L 96.968115 137.46026 
L 97.086362 137.469572 
L 97.203021 137.494328 
L 97.204608 137.487553 
L 97.206195 137.49365 
L 97.324442 137.502206 
L 97.441101 137.526255 
L 97.442688 137.519468 
L 97.444275 137.525555 
L 97.562522 137.533528 
L 97.678387 137.557121 
L 97.805363 137.564115 
L 97.919642 137.609034 
L 97.920435 137.603993 
L 98.1728 138.172427 
L 98.252954 138.293325 
L 98.366438 138.601524 
L 98.425165 138.495079 
L 98.567219 138.140958 
L 98.621184 138.219201 
L 98.763238 138.415548 
L 98.833869 138.274273 
L 98.952909 138.106535 
L 99.004493 138.162328 
L 99.139405 138.285473 
L 99.190989 138.2201 
L 99.362406 138.070143 
L 99.406848 138.114572 
L 99.531443 138.16531 
L 99.558426 138.14093 
L 99.66953 138.013389 
L 99.797299 138.0413 
L 99.948877 138.04466 
L 99.94967 138.043716 
L 100.519475 137.88098 
L 100.756762 137.864704 
L 100.973414 137.821176 
L 101.163085 137.782344 
L 101.390848 137.747759 
L 101.588454 137.697395 
L 101.846374 137.664838 
L 102.232858 137.591795 
L 102.617754 137.519979 
L 102.986778 137.452752 
L 103.365325 137.384332 
L 103.666099 137.329316 
L 104.05417 137.261475 
L 104.358118 137.208694 
L 104.720794 137.146536 
L 105.046963 137.091865 
L 105.404877 137.031427 
L 105.786598 136.968057 
L 106.149274 136.908078 
L 106.473856 136.855085 
L 106.874624 136.789347 
L 107.256346 136.727733 
L 107.620608 136.669204 
L 111.129907 136.121729 
L 111.129907 136.12188 
L 112.679014 135.887137 
L 113.011533 135.8371 
L 113.383731 135.780608 
L 113.71625 135.730787 
L 114.088448 135.674693 
L 114.420966 135.625221 
L 122.455373 134.547355 
L 122.565683 134.53349 
L 122.566477 134.533608 
L 122.943437 134.486831 
L 123.356902 134.436255 
L 123.73545 134.389641 
L 124.08384 134.347168 
L 124.462387 134.300407 
L 124.810778 134.257781 
L 125.189325 134.210893 
L 125.537715 134.168236 
L 125.917056 134.121577 
L 126.351155 134.068149 
L 126.701133 134.025507 
L 127.135232 133.97199 
L 127.48521 133.928983 
L 127.920896 133.874607 
L 128.334362 133.823144 
L 128.714496 133.775369 
L 129.127962 133.723762 
L 129.508096 133.675854 
L 129.921562 133.623863 
L 130.303283 133.575074 
L 130.653261 133.530355 
L 131.090534 133.47323 
L 131.981747 133.530718 
L 132.240461 133.552618 
L 133.006285 133.613135 
L 133.319757 133.636248 
L 133.714176 133.67109 
L 134.184781 133.713616 
L 134.59031 133.748936 
L 134.970445 133.781858 
L 135.398195 133.819634 
L 135.741824 133.84967 
L 136.131482 133.88382 
L 136.517965 133.918318 
L 136.845722 133.948538 
L 137.236966 133.983065 
L 137.618688 134.016312 
L 138.054374 134.054151 
L 138.392448 134.084011 
L 138.794803 134.118849 
L 139.159066 134.150741 
L 139.518566 134.181585 
L 139.874893 134.212788 
L 140.28201 134.248413 
L 140.695475 134.28512 
L 141.050214 134.316046 
L 141.468442 134.353272 
L 141.867622 134.388512 
L 142.230298 134.421247 
L 142.62313 134.456381 
L 142.988979 134.489895 
L 143.380224 134.525455 
L 143.800038 134.564353 
L 144.143667 134.596119 
L 144.50793 134.63051 
L 144.851558 134.662634 
L 145.212646 134.697164 
L 145.557862 134.729934 
L 145.971328 134.770078 
L 146.314957 134.803217 
L 146.676045 134.838839 
L 147.017293 134.872512 
L 147.403776 134.910584 
L 147.764864 134.947007 
L 148.105318 134.981061 
L 148.464819 135.017843 
L 148.849715 135.056923 
L 149.258419 135.099243 
L 149.641728 135.138749 
L 149.999642 135.176422 
L 150.051226 135.177588 
L 150.06551 135.273406 
L 150.259149 136.023552 
L 150.29248 135.981517 
L 150.384538 135.891759 
L 150.410726 135.919553 
L 150.703565 136.364802 
L 150.412314 135.917413 
L 150.717056 136.34694 
L 150.71785 136.341971 
L 150.811494 136.4504 
L 150.812288 136.449393 
L 150.9472 136.686564 
L 150.947994 136.679979 
L 151.036877 136.754128 
L 151.051955 136.741136 
L 151.078938 136.751653 
L 151.120205 136.805112 
L 151.138458 136.803949 
L 151.261466 136.992431 
L 151.263053 136.987044 
L 151.453517 137.170262 
L 151.265434 136.982154 
L 151.455104 137.169539 
L 151.459866 137.157104 
L 151.536845 137.250656 
L 151.547162 137.247023 
L 151.55113 137.244654 
L 151.761434 137.47 
L 151.765402 137.457406 
L 151.861427 137.545281 
L 151.863014 137.539932 
L 151.981261 137.664643 
L 151.982848 137.660884 
L 152.120141 137.773126 
L 151.98761 137.652105 
L 152.123315 137.7668 
L 152.134426 137.762413 
L 152.203469 137.831295 
L 152.217754 137.821387 
L 152.342349 137.934355 
L 152.353459 137.929649 
L 152.356634 137.924568 
L 152.447104 137.997368 
L 152.449485 137.991882 
L 152.564557 138.069148 
L 152.567731 138.062389 
L 152.672486 138.089186 
L 152.620109 138.100319 
L 152.676454 138.094535 
L 153.047066 138.218911 
L 153.051034 138.210134 
L 153.10103 138.199351 
L 153.153408 138.246508 
L 153.15817 138.23522 
L 153.231974 138.249415 
L 153.168486 138.227661 
L 153.26848 138.222574 
L 153.269274 138.224951 
L 153.335142 138.089241 
L 153.341491 138.090483 
L 153.404186 138.100017 
L 153.361331 138.074223 
L 153.449421 138.071687 
L 153.549414 138.051195 
L 153.513702 138.08425 
L 153.562906 138.0544 
L 153.576397 138.067065 
L 153.673216 138.005528 
L 153.67401 138.014195 
L 153.77321 137.972238 
L 153.708134 138.033818 
L 153.788288 137.976958 
L 153.800192 137.987419 
L 153.891456 137.90391 
L 153.97161 137.893162 
L 153.893043 137.910852 
L 154.01129 137.927189 
L 154.118426 137.963406 
L 154.131123 137.951207 
L 154.231117 137.885293 
L 154.250957 137.895031 
L 154.304922 137.914399 
L 154.35968 137.874313 
L 154.361267 137.880917 
L 154.613632 137.676112 
L 154.614426 137.683327 
L 154.7168 137.607924 
L 154.717594 137.614887 
L 154.838221 137.500591 
L 154.839014 137.501704 
L 154.84695 137.512384 
L 154.939008 137.454622 
L 154.944563 137.45775 
L 154.958054 137.458948 
L 155.027891 137.404924 
L 155.041382 137.401124 
L 155.043763 137.40557 
L 155.484211 136.976286 
L 155.558016 136.848297 
L 155.616742 136.875141 
L 155.661184 136.928715 
L 155.726259 136.866011 
L 155.890534 136.580319 
L 155.891328 136.588342 
L 155.988941 136.551856 
L 155.999258 136.559891 
L 156.115917 136.488129 
L 156.11671 136.490668 
L 156.218291 136.488402 
L 156.118298 136.496702 
L 156.23337 136.497867 
L 156.350029 136.599981 
L 156.353997 136.593742 
L 156.447642 136.632522 
L 156.390502 136.623959 
L 156.454784 136.637478 
L 156.565888 136.669737 
L 156.461133 136.635813 
L 156.568269 136.663029 
L 156.569062 136.658427 
L 156.671437 136.708472 
L 156.673024 136.701435 
L 156.781747 136.756317 
L 156.676992 136.69975 
L 156.78889 136.751333 
L 156.943642 136.810701 
L 156.790477 136.749137 
L 156.944435 136.802386 
L 157.412659 136.966432 
L 157.52297 137.021241 
L 157.459482 136.948362 
L 157.528525 137.017316 
L 157.744384 137.21284 
L 157.530112 137.014254 
L 157.760256 137.180015 
L 157.838029 137.169064 
L 157.805491 137.21721 
L 157.865805 137.221193 
L 158.00151 137.400615 
L 158.014208 137.386055 
L 158.152294 137.204155 
L 158.017382 137.390196 
L 158.153088 137.204761 
L 158.161818 137.192895 
L 158.225306 137.291273 
L 158.226893 137.286669 
L 158.357837 137.50524 
L 158.35863 137.500233 
L 158.379264 137.521345 
L 158.453069 137.433775 
L 158.453862 137.434154 
L 158.487987 137.379934 
L 158.543539 137.451458 
L 158.570522 137.405992 
L 158.684006 137.637522 
L 158.720512 137.568178 
L 158.722099 137.57065 
L 158.845107 137.518823 
L 158.928435 137.560788 
L 158.867328 137.481862 
L 158.958592 137.516589 
L 159.306189 137.892739 
L 159.375232 137.773385 
L 159.41888 137.717403 
L 159.48713 137.769089 
L 159.599027 137.86661 
L 159.513318 137.737606 
L 159.614106 137.856896 
L 159.698227 137.82154 
L 159.656166 137.900774 
L 159.723622 137.871633 
L 159.791872 137.88283 
L 159.830758 137.826242 
L 159.877581 137.82338 
L 159.927578 137.918085 
L 159.928371 137.914534 
L 160.065664 138.159844 
L 160.083123 138.143202 
L 160.225178 138.059713 
L 160.08471 138.149431 
L 160.241843 138.074062 
L 160.420403 138.308648 
L 160.24343 138.072794 
L 160.447386 138.273892 
L 160.45929 138.2746 
L 160.482304 138.208887 
L 160.509286 138.180241 
L 160.65769 138.061004 
L 160.869581 138.314811 
L 160.87593 138.30999 
L 160.945766 138.254165 
L 160.902118 138.335108 
L 160.989414 138.301154 
L 161.139405 138.409593 
L 160.991002 138.300515 
L 161.141786 138.40699 
L 161.142579 138.403498 
L 161.183846 138.45095 
L 161.248128 138.43728 
L 161.358438 138.610336 
L 161.38304 138.568579 
L 161.394944 138.59279 
L 161.485414 138.520196 
L 161.646515 138.049444 
L 161.647309 138.04308 
L 161.729843 138.268681 
L 161.730637 138.266895 
L 161.83063 138.546198 
L 161.871104 138.50914 
L 162.002048 138.357762 
L 162.002842 138.361913 
L 162.006016 138.358078 
L 162.094899 138.437245 
L 162.095693 138.433758 
L 162.237747 138.641065 
L 162.329011 138.624476 
L 162.280602 138.673511 
L 162.348058 138.643958 
L 162.43456 138.691575 
L 162.46313 138.673444 
L 162.509952 138.661744 
L 162.607565 138.85207 
L 162.608358 138.849866 
L 162.69248 138.940808 
L 162.693274 138.936369 
L 162.702003 138.955526 
L 162.778982 138.817708 
L 162.785331 138.829513 
L 162.91072 138.66972 
L 162.914688 138.674064 
L 163.09801 138.847932 
L 163.240858 138.958841 
L 163.253555 138.946936 
L 163.271808 138.923401 
L 163.355136 139.024617 
L 163.480525 139.055916 
L 163.509094 139.015055 
L 163.782886 138.669381 
L 163.78368 138.66991 
L 163.947162 138.534885 
L 164.146355 138.380685 
L 164.351104 138.215695 
L 165.939891 137.173392 
L 166.21527 137.003447 
L 166.595405 136.775121 
L 166.87872 136.606855 
L 166.879514 136.60153 
L 166.965222 136.772659 
L 166.96681 136.765921 
L 167.059661 136.849077 
L 166.968397 136.764838 
L 167.098547 136.818462 
L 167.25568 136.750163 
L 167.100134 136.825273 
L 167.271552 136.768754 
L 167.396941 136.871028 
L 167.400909 136.862958 
L 167.521536 136.851105 
L 167.410432 136.874114 
L 167.523123 136.852249 
L 167.535027 136.850592 
L 167.639782 136.906633 
L 167.642957 136.896613 
L 167.734221 136.983593 
L 167.743744 136.982397 
L 167.85088 137.024663 
L 167.747712 136.992764 
L 167.852467 137.026439 
L 167.963571 137.065817 
L 167.858816 137.024542 
L 167.965952 137.059148 
L 167.966746 137.054493 
L 168.06912 137.111182 
L 168.070707 137.104161 
L 168.17943 137.157292 
L 168.074675 137.102191 
L 168.185779 137.149819 
L 168.273075 137.174764 
L 168.305613 137.1583 
L 168.312755 137.143002 
L 168.401638 137.270862 
L 168.402432 137.264916 
L 168.62464 137.372593 
L 168.627021 137.370055 
L 168.709555 137.334959 
L 168.632576 137.376783 
L 168.738125 137.379217 
L 169.074611 137.695583 
L 168.739712 137.376776 
L 169.084134 137.676964 
L 169.119846 137.620148 
L 169.184128 137.712802 
L 169.192064 137.702427 
L 169.385702 138.008621 
L 169.194445 137.70077 
L 169.422208 137.922616 
L 169.53728 137.866582 
L 169.449984 137.950365 
L 169.544422 137.87017 
L 169.569818 137.886453 
L 169.610291 137.814463 
L 169.653146 137.850343 
L 169.679334 137.824841 
L 169.745203 137.913816 
L 169.748378 137.914503 
L 169.873766 138.043064 
L 170.080896 137.714481 
L 169.875354 138.0477 
L 170.093594 137.749188 
L 170.168192 138.037707 
L 170.284851 138.349305 
L 170.310246 138.309229 
L 170.312627 138.314523 
L 170.369766 138.173531 
L 170.37056 138.175407 
L 170.404685 138.07933 
L 170.482458 138.172113 
L 170.564198 138.179286 
L 170.592768 138.161235 
L 170.75863 137.816631 
L 170.766566 137.803979 
L 170.83561 137.739393 
L 170.960205 137.667983 
L 170.960998 137.671206 
L 171.037978 137.524498 
L 171.038771 137.526879 
L 171.182413 137.283896 
L 171.280026 137.279146 
L 171.202253 137.277603 
L 171.292723 137.275444 
L 171.452237 137.008715 
L 171.45303 137.011146 
L 171.530803 136.893225 
L 171.53239 136.896762 
L 171.583974 136.883019 
L 171.644288 136.898421 
L 171.66889 136.902054 
L 171.742694 136.828074 
L 171.743488 136.830751 
L 172.083942 136.614391 
L 172.083942 136.617832 
L 172.195046 136.489242 
L 172.302976 136.477433 
L 172.239488 136.460928 
L 172.302976 136.473812 
L 172.472013 136.467678 
L 172.596608 136.394089 
L 172.71168 136.408469 
L 172.831514 136.372561 
L 172.832307 136.376024 
L 172.931507 136.312011 
L 172.932301 136.315593 
L 173.04896 136.291698 
L 173.124352 136.290686 
L 173.15927 136.280679 
L 173.285453 136.209896 
L 173.286246 136.213445 
L 173.341798 136.187368 
L 173.392589 136.1829 
L 173.509248 136.164091 
L 173.510042 136.16784 
L 173.614003 136.126196 
L 173.614797 136.129829 
L 173.73463 136.090274 
L 173.829069 136.077934 
L 173.843354 136.074792 
L 173.963187 136.033076 
L 173.963981 136.036757 
L 174.06953 136.002208 
L 174.070323 136.005995 
L 174.18857 135.979198 
L 174.189363 135.982986 
L 174.294912 135.94806 
L 174.295706 135.951746 
L 174.415539 135.908451 
L 174.416333 135.9122 
L 174.464742 135.895798 
L 174.524262 135.88802 
L 174.642509 135.85452 
L 174.643302 135.85825 
L 174.748851 135.82452 
L 174.749645 135.828282 
L 174.867891 135.800282 
L 174.912333 135.79651 
L 174.976614 135.782505 
L 175.094861 135.750819 
L 175.130573 135.743018 
L 175.203584 135.734772 
L 175.320243 135.711617 
L 175.428966 135.694775 
L 175.545626 135.672055 
L 175.655936 135.661417 
L 175.772595 135.640027 
L 175.882906 135.62894 
L 175.997978 135.61222 
L 176.108288 135.603029 
L 176.22336 135.585909 
L 176.335258 135.579443 
L 176.45033 135.564642 
L 176.562227 135.558128 
L 176.677299 135.545291 
L 176.789197 135.540957 
L 176.904269 135.528444 
L 177.016166 135.525317 
L 177.131238 135.514634 
L 177.243136 135.511972 
L 177.358208 135.502164 
L 177.470106 135.500963 
L 177.585178 135.491675 
L 177.697075 135.49101 
L 177.81056 135.482969 
L 177.922458 135.482927 
L 178.035942 135.475371 
L 178.149427 135.476246 
L 178.262912 135.469351 
L 178.376397 135.47062 
L 178.489882 135.464462 
L 178.603366 135.466365 
L 178.716851 135.460588 
L 178.830336 135.463075 
L 178.943821 135.457877 
L 179.057306 135.460741 
L 179.17079 135.45603 
L 179.284275 135.459416 
L 179.39776 135.45507 
L 179.511245 135.458857 
L 179.62473 135.454959 
L 179.738214 135.459084 
L 179.851699 135.45552 
L 179.965184 135.460023 
L 180.078669 135.456764 
L 180.192154 135.461549 
L 180.305638 135.458605 
L 180.419123 135.46366 
L 180.532608 135.460953 
L 180.646093 135.466269 
L 180.759578 135.4638 
L 180.873062 135.469313 
L 180.986547 135.467043 
L 181.100032 135.472743 
L 181.213517 135.470636 
L 181.327002 135.476502 
L 181.440486 135.474547 
L 181.553971 135.480536 
L 181.667456 135.478702 
L 181.780941 135.484805 
L 181.894426 135.483063 
L 182.00791 135.489252 
L 182.121395 135.487589 
L 182.23488 135.49384 
L 182.348365 135.492231 
L 182.46185 135.49853 
L 182.572954 135.496922 
L 182.572954 135.500882 
L 182.713421 135.499851 
L 182.826906 135.506182 
L 182.94039 135.504628 
L 183.053875 135.510961 
L 183.16736 135.509395 
L 183.280845 135.515704 
L 183.39433 135.514108 
L 183.507814 135.520379 
L 183.621299 135.518734 
L 183.734784 135.52495 
L 183.848269 135.523244 
L 183.961754 135.52939 
L 184.067302 135.527457 
L 184.068096 135.531417 
L 184.310144 135.531939 
L 184.423629 135.537901 
L 184.537114 135.53592 
L 184.650598 135.541772 
L 184.764083 135.539674 
L 184.877568 135.545403 
L 184.991053 135.543177 
L 185.104538 135.548772 
L 185.218022 135.546406 
L 185.331507 135.551857 
L 185.444992 135.549338 
L 185.558477 135.554631 
L 185.671962 135.551952 
L 185.785446 135.557081 
L 185.898931 135.554232 
L 186.012416 135.559187 
L 186.125901 135.55616 
L 186.239386 135.560932 
L 186.35287 135.557716 
L 186.461594 135.562272 
L 186.689357 135.559307 
L 186.802842 135.56359 
L 186.916326 135.559876 
L 187.029811 135.563949 
L 187.143296 135.560022 
L 187.256781 135.563879 
L 187.370266 135.559733 
L 187.48375 135.563368 
L 187.597235 135.558996 
L 187.71072 135.562403 
L 187.824205 135.5578 
L 187.93769 135.560973 
L 188.047206 135.556161 
L 188.220211 135.55853 
L 188.333696 135.553391 
L 188.447181 135.556023 
L 188.560666 135.550637 
L 188.67415 135.55302 
L 188.787635 135.547384 
L 188.90112 135.549515 
L 189.014605 135.543624 
L 189.12809 135.545499 
L 189.240781 135.539351 
L 189.359821 135.540866 
L 189.470131 135.534523 
L 189.470925 135.538452 
L 189.58441 135.531909 
L 189.697894 135.533127 
L 189.811379 135.526319 
L 189.924864 135.527272 
L 190.038349 135.520201 
L 190.151834 135.520898 
L 190.265318 135.513571 
L 190.377216 135.514056 
L 190.490701 135.506471 
L 190.602598 135.506702 
L 190.602598 135.502729 
L 190.720051 135.502664 
L 190.833536 135.494685 
L 190.94464 135.494534 
L 190.94464 135.490499 
L 191.08352 135.489299 
L 191.19383 135.481026 
L 191.194624 135.484941 
L 191.308902 135.476412 
L 191.308902 135.480326 
L 191.419213 135.471797 
L 191.420006 135.47571 
L 191.533491 135.466914 
L 191.645389 135.465949 
L 191.760461 135.456817 
L 191.872358 135.455583 
L 191.98743 135.446171 
L 192.099328 135.444669 
L 192.2144 135.434983 
L 192.326298 135.433211 
L 192.44137 135.423247 
L 192.553267 135.421209 
L 192.665165 135.41115 
L 192.665165 135.415052 
L 192.831821 135.401751 
L 192.943718 135.399184 
L 193.05879 135.388422 
L 193.169894 135.3856 
L 193.170688 135.381412 
L 193.33417 135.375448 
L 193.449242 135.364204 
L 193.561139 135.360912 
L 193.676211 135.349379 
L 193.788109 135.345822 
L 193.903181 135.334027 
L 194.015078 135.330197 
L 194.12777 135.318135 
L 194.253158 135.313268 
L 194.363469 135.3013 
L 194.364262 135.305185 
L 194.479334 135.292747 
L 194.591232 135.288307 
L 194.706304 135.275614 
L 194.818202 135.270927 
L 194.933274 135.257983 
L 195.045171 135.253044 
L 195.160243 135.239842 
L 195.272141 135.234664 
L 195.387213 135.221194 
L 195.49911 135.215713 
L 195.614182 135.201969 
L 195.72608 135.196268 
L 195.841152 135.182266 
L 195.95305 135.176313 
L 196.068122 135.162085 
L 196.180019 135.155894 
L 196.295091 135.141414 
L 196.405402 135.135152 
L 196.529997 135.119563 
L 196.653005 135.112011 
L 196.768077 135.096907 
L 196.877594 135.09064 
L 196.879974 135.090023 
L 196.995046 135.074833 
L 196.995046 135.078695 
L 197.119642 135.062456 
L 197.119642 135.066317 
L 197.229952 135.051892 
L 197.230746 135.055756 
L 197.345818 135.040822 
L 197.454541 135.033722 
L 197.454541 135.03356 
L 197.607706 135.014295 
L 197.718016 135.006959 
L 197.833088 134.990824 
L 197.938637 134.983355 
L 198.220365 134.948328 
L 198.330675 134.939732 
L 198.331469 134.939552 
L 198.441779 134.922817 
L 198.541773 134.91536 
L 198.542566 134.911326 
" style="fill:none;stroke:#ff0000;stroke-linecap:square;stroke-width:1.5;"/>
   </g>
   <g id="patch_3">
    <path d="M 57.6 307.584 
L 57.6 41.472 
" style="fill:none;stroke:#000000;stroke-linecap:square;stroke-linejoin:miter;stroke-width:0.8;"/>
   </g>
   <g id="patch_4">
    <path d="M 414.72 307.584 
L 414.72 41.472 
" style="fill:none;stroke:#000000;stroke-linecap:square;stroke-linejoin:miter;stroke-width:0.8;"/>
   </g>
   <g id="patch_5">
    <path d="M 57.6 307.584 
L 414.72 307.584 
" style="fill:none;stroke:#000000;stroke-linecap:square;stroke-linejoin:miter;stroke-width:0.8;"/>
   </g>
   <g id="patch_6">
    <path d="M 57.6 41.472 
L 414.72 41.472 
" style="fill:none;stroke:#000000;stroke-linecap:square;stroke-linejoin:miter;stroke-width:0.8;"/>
   </g>
   <g id="text_20">
    <!-- Distance Between Joint01 and Joint11 Over Time -->
    <defs>
     <path d="M 19.671875 34.8125 
L 19.671875 8.109375 
L 35.5 8.109375 
Q 43.453125 8.109375 47.28125 11.40625 
Q 51.125 14.703125 51.125 21.484375 
Q 51.125 28.328125 47.28125 31.5625 
Q 43.453125 34.8125 35.5 34.8125 
z
M 19.671875 64.796875 
L 19.671875 42.828125 
L 34.28125 42.828125 
Q 41.5 42.828125 45.03125 45.53125 
Q 48.578125 48.25 48.578125 53.8125 
Q 48.578125 59.328125 45.03125 62.0625 
Q 41.5 64.796875 34.28125 64.796875 
z
M 9.8125 72.90625 
L 35.015625 72.90625 
Q 46.296875 72.90625 52.390625 68.21875 
Q 58.5 63.53125 58.5 54.890625 
Q 58.5 48.1875 55.375 44.234375 
Q 52.25 40.28125 46.1875 39.3125 
Q 53.46875 37.75 57.5 32.78125 
Q 61.53125 27.828125 61.53125 20.40625 
Q 61.53125 10.640625 54.890625 5.3125 
Q 48.25 0 35.984375 0 
L 9.8125 0 
z
" id="DejaVuSans-66"/>
     <path d="M 4.203125 54.6875 
L 13.1875 54.6875 
L 24.421875 12.015625 
L 35.59375 54.6875 
L 46.1875 54.6875 
L 57.421875 12.015625 
L 68.609375 54.6875 
L 77.59375 54.6875 
L 63.28125 0 
L 52.6875 0 
L 40.921875 44.828125 
L 29.109375 0 
L 18.5 0 
z
" id="DejaVuSans-119"/>
     <path d="M 9.8125 72.90625 
L 19.671875 72.90625 
L 19.671875 5.078125 
Q 19.671875 -8.109375 14.671875 -14.0625 
Q 9.671875 -20.015625 -1.421875 -20.015625 
L -5.171875 -20.015625 
L -5.171875 -11.71875 
L -2.09375 -11.71875 
Q 4.4375 -11.71875 7.125 -8.046875 
Q 9.8125 -4.390625 9.8125 5.078125 
z
" id="DejaVuSans-74"/>
     <path d="M 30.609375 48.390625 
Q 23.390625 48.390625 19.1875 42.75 
Q 14.984375 37.109375 14.984375 27.296875 
Q 14.984375 17.484375 19.15625 11.84375 
Q 23.34375 6.203125 30.609375 6.203125 
Q 37.796875 6.203125 41.984375 11.859375 
Q 46.1875 17.53125 46.1875 27.296875 
Q 46.1875 37.015625 41.984375 42.703125 
Q 37.796875 48.390625 30.609375 48.390625 
z
M 30.609375 56 
Q 42.328125 56 49.015625 48.375 
Q 55.71875 40.765625 55.71875 27.296875 
Q 55.71875 13.875 49.015625 6.21875 
Q 42.328125 -1.421875 30.609375 -1.421875 
Q 18.84375 -1.421875 12.171875 6.21875 
Q 5.515625 13.875 5.515625 27.296875 
Q 5.515625 40.765625 12.171875 48.375 
Q 18.84375 56 30.609375 56 
z
" id="DejaVuSans-111"/>
     <path d="M 45.40625 46.390625 
L 45.40625 75.984375 
L 54.390625 75.984375 
L 54.390625 0 
L 45.40625 0 
L 45.40625 8.203125 
Q 42.578125 3.328125 38.25 0.953125 
Q 33.9375 -1.421875 27.875 -1.421875 
Q 17.96875 -1.421875 11.734375 6.484375 
Q 5.515625 14.40625 5.515625 27.296875 
Q 5.515625 40.1875 11.734375 48.09375 
Q 17.96875 56 27.875 56 
Q 33.9375 56 38.25 53.625 
Q 42.578125 51.265625 45.40625 46.390625 
z
M 14.796875 27.296875 
Q 14.796875 17.390625 18.875 11.75 
Q 22.953125 6.109375 30.078125 6.109375 
Q 37.203125 6.109375 41.296875 11.75 
Q 45.40625 17.390625 45.40625 27.296875 
Q 45.40625 37.203125 41.296875 42.84375 
Q 37.203125 48.484375 30.078125 48.484375 
Q 22.953125 48.484375 18.875 42.84375 
Q 14.796875 37.203125 14.796875 27.296875 
z
" id="DejaVuSans-100"/>
     <path d="M 39.40625 66.21875 
Q 28.65625 66.21875 22.328125 58.203125 
Q 16.015625 50.203125 16.015625 36.375 
Q 16.015625 22.609375 22.328125 14.59375 
Q 28.65625 6.59375 39.40625 6.59375 
Q 50.140625 6.59375 56.421875 14.59375 
Q 62.703125 22.609375 62.703125 36.375 
Q 62.703125 50.203125 56.421875 58.203125 
Q 50.140625 66.21875 39.40625 66.21875 
z
M 39.40625 74.21875 
Q 54.734375 74.21875 63.90625 63.9375 
Q 73.09375 53.65625 73.09375 36.375 
Q 73.09375 19.140625 63.90625 8.859375 
Q 54.734375 -1.421875 39.40625 -1.421875 
Q 24.03125 -1.421875 14.8125 8.828125 
Q 5.609375 19.09375 5.609375 36.375 
Q 5.609375 53.65625 14.8125 63.9375 
Q 24.03125 74.21875 39.40625 74.21875 
z
" id="DejaVuSans-79"/>
     <path d="M 2.984375 54.6875 
L 12.5 54.6875 
L 29.59375 8.796875 
L 46.6875 54.6875 
L 56.203125 54.6875 
L 35.6875 0 
L 23.484375 0 
z
" id="DejaVuSans-118"/>
     <path d="M 41.109375 46.296875 
Q 39.59375 47.171875 37.8125 47.578125 
Q 36.03125 48 33.890625 48 
Q 26.265625 48 22.1875 43.046875 
Q 18.109375 38.09375 18.109375 28.8125 
L 18.109375 0 
L 9.078125 0 
L 9.078125 54.6875 
L 18.109375 54.6875 
L 18.109375 46.1875 
Q 20.953125 51.171875 25.484375 53.578125 
Q 30.03125 56 36.53125 56 
Q 37.453125 56 38.578125 55.875 
Q 39.703125 55.765625 41.0625 55.515625 
z
" id="DejaVuSans-114"/>
    </defs>
    <g transform="translate(89.848125 35.472)scale(0.12 -0.12)">
     <use xlink:href="#DejaVuSans-68"/>
     <use x="77.001953" xlink:href="#DejaVuSans-105"/>
     <use x="104.785156" xlink:href="#DejaVuSans-115"/>
     <use x="156.884766" xlink:href="#DejaVuSans-116"/>
     <use x="196.09375" xlink:href="#DejaVuSans-97"/>
     <use x="257.373047" xlink:href="#DejaVuSans-110"/>
     <use x="320.751953" xlink:href="#DejaVuSans-99"/>
     <use x="375.732422" xlink:href="#DejaVuSans-101"/>
     <use x="437.255859" xlink:href="#DejaVuSans-32"/>
     <use x="469.042969" xlink:href="#DejaVuSans-66"/>
     <use x="537.646484" xlink:href="#DejaVuSans-101"/>
     <use x="599.169922" xlink:href="#DejaVuSans-116"/>
     <use x="638.378906" xlink:href="#DejaVuSans-119"/>
     <use x="720.166016" xlink:href="#DejaVuSans-101"/>
     <use x="781.689453" xlink:href="#DejaVuSans-101"/>
     <use x="843.212891" xlink:href="#DejaVuSans-110"/>
     <use x="906.591797" xlink:href="#DejaVuSans-32"/>
     <use x="938.378906" xlink:href="#DejaVuSans-74"/>
     <use x="967.871094" xlink:href="#DejaVuSans-111"/>
     <use x="1029.052734" xlink:href="#DejaVuSans-105"/>
     <use x="1056.835938" xlink:href="#DejaVuSans-110"/>
     <use x="1120.214844" xlink:href="#DejaVuSans-116"/>
     <use x="1159.423828" xlink:href="#DejaVuSans-48"/>
     <use x="1223.046875" xlink:href="#DejaVuSans-49"/>
     <use x="1286.669922" xlink:href="#DejaVuSans-32"/>
     <use x="1318.457031" xlink:href="#DejaVuSans-97"/>
     <use x="1379.736328" xlink:href="#DejaVuSans-110"/>
     <use x="1443.115234" xlink:href="#DejaVuSans-100"/>
     <use x="1506.591797" xlink:href="#DejaVuSans-32"/>
     <use x="1538.378906" xlink:href="#DejaVuSans-74"/>
     <use x="1567.871094" xlink:href="#DejaVuSans-111"/>
     <use x="1629.052734" xlink:href="#DejaVuSans-105"/>
     <use x="1656.835938" xlink:href="#DejaVuSans-110"/>
     <use x="1720.214844" xlink:href="#DejaVuSans-116"/>
     <use x="1759.423828" xlink:href="#DejaVuSans-49"/>
     <use x="1823.046875" xlink:href="#DejaVuSans-49"/>
     <use x="1886.669922" xlink:href="#DejaVuSans-32"/>
     <use x="1918.457031" xlink:href="#DejaVuSans-79"/>
     <use x="1997.167969" xlink:href="#DejaVuSans-118"/>
     <use x="2056.347656" xlink:href="#DejaVuSans-101"/>
     <use x="2117.871094" xlink:href="#DejaVuSans-114"/>
     <use x="2158.984375" xlink:href="#DejaVuSans-32"/>
     <use x="2190.771484" xlink:href="#DejaVuSans-84"/>
     <use x="2251.808594" xlink:href="#DejaVuSans-105"/>
     <use x="2279.591797" xlink:href="#DejaVuSans-109"/>
     <use x="2377.003906" xlink:href="#DejaVuSans-101"/>
    </g>
   </g>
  </g>
 </g>
 <defs>
  <clipPath id="p60b478cb37">
   <rect height="266.112" width="357.12" x="57.6" y="41.472"/>
  </clipPath>
 </defs>
</svg>
